<svg xmlns="http://www.w3.org/2000/svg" xmlns:xlink="http://www.w3.org/1999/xlink" width="512" zoomAndPan="magnify" viewBox="0 0 384 269.25" height="359" preserveAspectRatio="xMidYMid meet" version="1.0"><defs><g/><clipPath id="id1"><path d="M 158.855469 74.941406 L 225.421875 74.941406 L 225.421875 141.503906 L 158.855469 141.503906 Z M 158.855469 74.941406 " clip-rule="nonzero"/></clipPath><clipPath id="id2"><path d="M 158.855469 83 L 168 83 L 168 92 L 158.855469 92 Z M 158.855469 83 " clip-rule="nonzero"/></clipPath><clipPath id="id3"><path d="M 158.855469 124 L 168 124 L 168 134 L 158.855469 134 Z M 158.855469 124 " clip-rule="nonzero"/></clipPath></defs><path fill="#ffffff" d="M 192.117188 124.839844 L 175.480469 124.839844 L 167.160156 116.519531 L 192.117188 116.519531 C 196.710938 116.519531 200.4375 112.792969 200.4375 108.203125 C 200.4375 103.609375 196.710938 99.882812 192.117188 99.882812 L 167.160156 99.882812 L 175.480469 91.5625 L 192.117188 91.5625 C 201.304688 91.5625 208.753906 99.011719 208.753906 108.203125 C 208.753906 117.390625 201.304688 124.839844 192.117188 124.839844 " fill-opacity="1" fill-rule="nonzero"/><path fill="#c4bcbc" d="M 175.480469 108.203125 L 167.160156 99.882812 L 175.480469 99.882812 L 175.480469 108.203125 " fill-opacity="1" fill-rule="nonzero"/><path fill="#c4bcbc" d="M 175.480469 116.519531 L 167.160156 116.519531 L 175.480469 108.203125 L 175.480469 116.519531 " fill-opacity="1" fill-rule="nonzero"/><g clip-path="url(#id1)"><path fill="#ffffff" d="M 192.117188 141.480469 L 167.160156 141.480469 L 158.839844 133.160156 L 192.117188 133.160156 C 205.898438 133.160156 217.078125 121.984375 217.078125 108.203125 C 217.078125 94.417969 205.898438 83.242188 192.117188 83.242188 L 158.839844 83.242188 L 167.160156 74.925781 L 192.117188 74.925781 C 210.496094 74.925781 225.394531 89.824219 225.394531 108.203125 C 225.394531 126.578125 210.496094 141.480469 192.117188 141.480469 " fill-opacity="1" fill-rule="nonzero"/></g><g clip-path="url(#id2)"><path fill="#c4bcbc" d="M 167.160156 91.5625 L 158.839844 83.242188 L 167.160156 83.242188 L 167.160156 91.5625 " fill-opacity="1" fill-rule="nonzero"/></g><g clip-path="url(#id3)"><path fill="#c4bcbc" d="M 167.160156 133.160156 L 158.839844 133.160156 L 167.160156 124.839844 L 167.160156 133.160156 " fill-opacity="1" fill-rule="nonzero"/></g><g fill="#ffffff" fill-opacity="1"><g transform="translate(116.392595, 172.17917)"><g><path d="M 5.15625 -2.71875 L 6.734375 -2.71875 C 8.109375 -2.71875 9.1875 -3.132812 9.96875 -3.96875 C 10.75 -4.8125 11.140625 -5.9375 11.140625 -7.34375 C 11.140625 -8.757812 10.75 -9.882812 9.96875 -10.71875 C 9.1875 -11.550781 8.109375 -11.96875 6.734375 -11.96875 L 5.15625 -11.96875 Z M 6.734375 -14.703125 C 9.085938 -14.703125 11.015625 -14.019531 12.515625 -12.65625 C 14.023438 -11.289062 14.78125 -9.523438 14.78125 -7.359375 C 14.78125 -5.191406 14.023438 -3.421875 12.515625 -2.046875 C 11.015625 -0.679688 9.085938 0 6.734375 0 L 1.5625 0 L 1.5625 -14.703125 Z M 6.734375 -14.703125 "/></g></g></g><g fill="#ffffff" fill-opacity="1"><g transform="translate(131.868556, 172.17917)"><g><path d="M 10.46875 -14.734375 L 10.46875 -12.015625 L 5.15625 -12.015625 L 5.15625 -8.859375 L 9.84375 -8.859375 L 9.84375 -6.140625 L 5.15625 -6.140625 L 5.15625 -2.71875 L 10.46875 -2.71875 L 10.46875 0 L 1.5625 0 L 1.5625 -14.734375 Z M 10.46875 -14.734375 "/></g></g></g><g fill="#ffffff" fill-opacity="1"><g transform="translate(143.847239, 172.17917)"><g><path d="M 2.90625 -2 C 1.445312 -3.414062 0.71875 -5.210938 0.71875 -7.390625 C 0.71875 -9.566406 1.445312 -11.363281 2.90625 -12.78125 C 4.363281 -14.195312 6.144531 -14.90625 8.25 -14.90625 C 9.882812 -14.90625 11.335938 -14.472656 12.609375 -13.609375 C 13.878906 -12.742188 14.765625 -11.546875 15.265625 -10.015625 L 10.984375 -10.015625 C 10.429688 -11.085938 9.539062 -11.625 8.3125 -11.625 C 7.082031 -11.625 6.113281 -11.238281 5.40625 -10.46875 C 4.707031 -9.695312 4.359375 -8.671875 4.359375 -7.390625 C 4.359375 -6.109375 4.707031 -5.082031 5.40625 -4.3125 C 6.113281 -3.539062 7.082031 -3.15625 8.3125 -3.15625 C 9.539062 -3.15625 10.429688 -3.695312 10.984375 -4.78125 L 15.265625 -4.78125 C 14.765625 -3.238281 13.878906 -2.035156 12.609375 -1.171875 C 11.335938 -0.304688 9.882812 0.125 8.25 0.125 C 6.144531 0.125 4.363281 -0.582031 2.90625 -2 Z M 2.90625 -2 "/></g></g></g><g fill="#ffffff" fill-opacity="1"><g transform="translate(159.846739, 172.17917)"><g><path d="M 10.46875 -14.734375 L 10.46875 -12.015625 L 5.15625 -12.015625 L 5.15625 -8.859375 L 9.84375 -8.859375 L 9.84375 -6.140625 L 5.15625 -6.140625 L 5.15625 -2.71875 L 10.46875 -2.71875 L 10.46875 0 L 1.5625 0 L 1.5625 -14.734375 Z M 10.46875 -14.734375 "/></g></g></g><g fill="#ffffff" fill-opacity="1"><g transform="translate(171.825423, 172.17917)"><g><path d="M 11.140625 -14.734375 L 14.71875 -14.734375 L 14.71875 0 L 11.140625 0 L 5.15625 -9.28125 L 5.15625 0 L 1.5625 0 L 1.5625 -14.734375 L 5.15625 -14.734375 L 11.140625 -5.46875 Z M 11.140625 -14.734375 "/></g></g></g><g fill="#ffffff" fill-opacity="1"><g transform="translate(188.118105, 172.17917)"><g><path d="M 0.5625 -11.96875 L 0.5625 -14.703125 L 12.171875 -14.703125 L 12.171875 -11.96875 L 8.140625 -11.96875 L 8.140625 0 L 4.5625 0 L 4.5625 -11.96875 Z M 0.5625 -11.96875 "/></g></g></g><g fill="#ffffff" fill-opacity="1"><g transform="translate(200.850696, 172.17917)"><g><path d="M 10.46875 -14.734375 L 10.46875 -12.015625 L 5.15625 -12.015625 L 5.15625 -8.859375 L 9.84375 -8.859375 L 9.84375 -6.140625 L 5.15625 -6.140625 L 5.15625 -2.71875 L 10.46875 -2.71875 L 10.46875 0 L 1.5625 0 L 1.5625 -14.734375 Z M 10.46875 -14.734375 "/></g></g></g><g fill="#ffffff" fill-opacity="1"><g transform="translate(212.829379, 172.17917)"><g><path d="M 5.15625 -5.71875 L 5.15625 0 L 1.5625 0 L 1.5625 -14.703125 L 7.375 -14.703125 C 9.070312 -14.703125 10.394531 -14.257812 11.34375 -13.375 C 12.289062 -12.5 12.765625 -11.441406 12.765625 -10.203125 C 12.765625 -9.347656 12.503906 -8.515625 11.984375 -7.703125 C 11.472656 -6.890625 10.632812 -6.316406 9.46875 -5.984375 L 13.0625 0 L 8.875 0 L 5.5625 -5.71875 Z M 5.15625 -11.96875 L 5.15625 -8.4375 L 7.375 -8.4375 C 7.914062 -8.4375 8.34375 -8.597656 8.65625 -8.921875 C 8.96875 -9.242188 9.125 -9.664062 9.125 -10.1875 C 9.125 -10.707031 8.960938 -11.132812 8.640625 -11.46875 C 8.328125 -11.800781 7.90625 -11.96875 7.375 -11.96875 Z M 5.15625 -11.96875 "/></g></g></g><g fill="#ffffff" fill-opacity="1"><g transform="translate(226.818465, 172.17917)"><g><path d="M 1.5625 -14.703125 L 5.15625 -14.703125 L 5.15625 -2.71875 L 9.609375 -2.71875 L 9.609375 0 L 1.5625 0 Z M 1.5625 -14.703125 "/></g></g></g><g fill="#ffffff" fill-opacity="1"><g transform="translate(236.849559, 172.17917)"><g><path d="M 1.5625 0 L 1.5625 -14.703125 L 5.15625 -14.703125 L 5.15625 0 Z M 1.5625 0 "/></g></g></g><g fill="#ffffff" fill-opacity="1"><g transform="translate(243.571861, 172.17917)"><g><path d="M 1.5625 0 L 1.5625 -14.703125 L 11.140625 -14.703125 L 11.140625 -11.96875 L 5.15625 -11.96875 L 5.15625 -8.8125 L 9.625 -8.8125 L 9.625 -6.09375 L 5.15625 -6.09375 L 5.15625 0 Z M 1.5625 0 "/></g></g></g><g fill="#ffffff" fill-opacity="1"><g transform="translate(255.613369, 172.17917)"><g><path d="M 10.46875 -14.734375 L 10.46875 -12.015625 L 5.15625 -12.015625 L 5.15625 -8.859375 L 9.84375 -8.859375 L 9.84375 -6.140625 L 5.15625 -6.140625 L 5.15625 -2.71875 L 10.46875 -2.71875 L 10.46875 0 L 1.5625 0 L 1.5625 -14.734375 Z M 10.46875 -14.734375 "/></g></g></g><g fill="#ffffff" fill-opacity="1"><g transform="translate(135.422522, 189.830002)"><g><path d="M 3.484375 -7.3125 C 3.078125 -7.3125 2.742188 -7.207031 2.484375 -7 C 2.234375 -6.789062 2.109375 -6.488281 2.109375 -6.09375 C 2.109375 -5.695312 2.257812 -5.394531 2.5625 -5.1875 C 2.863281 -4.988281 3.226562 -4.835938 3.65625 -4.734375 C 4.09375 -4.640625 4.523438 -4.53125 4.953125 -4.40625 C 5.378906 -4.28125 5.742188 -4.050781 6.046875 -3.71875 C 6.359375 -3.382812 6.515625 -2.910156 6.515625 -2.296875 C 6.515625 -1.679688 6.253906 -1.128906 5.734375 -0.640625 C 5.210938 -0.160156 4.515625 0.078125 3.640625 0.078125 C 2.773438 0.078125 2.070312 -0.125 1.53125 -0.53125 C 0.988281 -0.9375 0.71875 -1.5 0.71875 -2.21875 L 2.171875 -2.21875 C 2.203125 -1.84375 2.335938 -1.546875 2.578125 -1.328125 C 2.816406 -1.117188 3.164062 -1.015625 3.625 -1.015625 C 4.09375 -1.015625 4.460938 -1.132812 4.734375 -1.375 C 5.003906 -1.613281 5.140625 -1.894531 5.140625 -2.21875 C 5.140625 -2.550781 5.054688 -2.804688 4.890625 -2.984375 C 4.722656 -3.171875 4.507812 -3.3125 4.25 -3.40625 C 3.988281 -3.5 3.703125 -3.582031 3.390625 -3.65625 C 3.085938 -3.726562 2.773438 -3.8125 2.453125 -3.90625 C 2.140625 -4 1.851562 -4.117188 1.59375 -4.265625 C 1.332031 -4.421875 1.117188 -4.644531 0.953125 -4.9375 C 0.796875 -5.226562 0.71875 -5.585938 0.71875 -6.015625 C 0.71875 -6.734375 0.976562 -7.3125 1.5 -7.75 C 2.019531 -8.195312 2.695312 -8.421875 3.53125 -8.421875 C 4.363281 -8.421875 5.03125 -8.226562 5.53125 -7.84375 C 6.03125 -7.46875 6.3125 -6.914062 6.375 -6.1875 L 4.859375 -6.1875 C 4.828125 -6.507812 4.691406 -6.773438 4.453125 -6.984375 C 4.210938 -7.203125 3.890625 -7.3125 3.484375 -7.3125 Z M 3.484375 -7.3125 "/></g></g></g><g fill="#ffffff" fill-opacity="1"><g transform="translate(142.650401, 189.830002)"><g><path d="M 2.453125 -8.34375 C 2.453125 -8.09375 2.367188 -7.882812 2.203125 -7.71875 C 2.035156 -7.550781 1.828125 -7.46875 1.578125 -7.46875 C 1.335938 -7.46875 1.132812 -7.550781 0.96875 -7.71875 C 0.800781 -7.882812 0.71875 -8.09375 0.71875 -8.34375 C 0.71875 -8.59375 0.800781 -8.800781 0.96875 -8.96875 C 1.132812 -9.132812 1.335938 -9.21875 1.578125 -9.21875 C 1.828125 -9.21875 2.035156 -9.132812 2.203125 -8.96875 C 2.367188 -8.800781 2.453125 -8.59375 2.453125 -8.34375 Z M 0.890625 0 L 0.890625 -6.59375 L 2.265625 -6.59375 L 2.265625 0 Z M 0.890625 0 "/></g></g></g><g fill="#ffffff" fill-opacity="1"><g transform="translate(145.809612, 189.830002)"><g><path d="M 3.5625 0.109375 C 2.675781 0.109375 1.929688 -0.207031 1.328125 -0.84375 C 0.734375 -1.488281 0.4375 -2.3125 0.4375 -3.3125 C 0.4375 -4.320312 0.734375 -5.140625 1.328125 -5.765625 C 1.921875 -6.390625 2.664062 -6.703125 3.5625 -6.703125 C 4.070312 -6.703125 4.523438 -6.582031 4.921875 -6.34375 C 5.316406 -6.113281 5.625 -5.804688 5.84375 -5.421875 L 5.84375 -6.59375 L 7.21875 -6.59375 L 7.21875 0.109375 C 7.21875 1.035156 6.929688 1.789062 6.359375 2.375 C 5.785156 2.957031 5.023438 3.25 4.078125 3.25 C 3.128906 3.25 2.359375 3.039062 1.765625 2.625 C 1.179688 2.207031 0.847656 1.640625 0.765625 0.921875 L 2.125 0.921875 C 2.226562 1.265625 2.445312 1.539062 2.78125 1.75 C 3.125 1.96875 3.550781 2.078125 4.0625 2.078125 C 4.570312 2.078125 4.992188 1.90625 5.328125 1.5625 C 5.671875 1.226562 5.84375 0.742188 5.84375 0.109375 L 5.84375 -1.234375 C 5.613281 -0.828125 5.300781 -0.5 4.90625 -0.25 C 4.519531 -0.0078125 4.070312 0.109375 3.5625 0.109375 Z M 5.25 -1.671875 C 5.644531 -2.078125 5.84375 -2.617188 5.84375 -3.296875 C 5.84375 -3.984375 5.644531 -4.523438 5.25 -4.921875 C 4.851562 -5.316406 4.382812 -5.515625 3.84375 -5.515625 C 3.300781 -5.515625 2.832031 -5.316406 2.4375 -4.921875 C 2.039062 -4.535156 1.84375 -4.003906 1.84375 -3.328125 C 1.84375 -2.648438 2.039062 -2.101562 2.4375 -1.6875 C 2.832031 -1.28125 3.300781 -1.078125 3.84375 -1.078125 C 4.382812 -1.078125 4.851562 -1.273438 5.25 -1.671875 Z M 5.25 -1.671875 "/></g></g></g><g fill="#ffffff" fill-opacity="1"><g transform="translate(153.923028, 189.830002)"><g><path d="M 2.265625 -6.59375 L 2.265625 -5.546875 C 2.703125 -6.316406 3.40625 -6.703125 4.375 -6.703125 C 5.113281 -6.703125 5.722656 -6.453125 6.203125 -5.953125 C 6.691406 -5.460938 6.9375 -4.773438 6.9375 -3.890625 L 6.9375 0 L 5.578125 0 L 5.578125 -3.6875 C 5.578125 -4.28125 5.425781 -4.734375 5.125 -5.046875 C 4.832031 -5.359375 4.429688 -5.515625 3.921875 -5.515625 C 3.410156 -5.515625 3.003906 -5.359375 2.703125 -5.046875 C 2.410156 -4.734375 2.265625 -4.28125 2.265625 -3.6875 L 2.265625 0 L 0.890625 0 L 0.890625 -6.59375 Z M 2.265625 -6.59375 "/></g></g></g><g fill="#ffffff" fill-opacity="1"><g transform="translate(161.689408, 189.830002)"><g/></g></g><g fill="#ffffff" fill-opacity="1"><g transform="translate(165.27941, 189.830002)"><g><path d="M 2.453125 -8.34375 C 2.453125 -8.09375 2.367188 -7.882812 2.203125 -7.71875 C 2.035156 -7.550781 1.828125 -7.46875 1.578125 -7.46875 C 1.335938 -7.46875 1.132812 -7.550781 0.96875 -7.71875 C 0.800781 -7.882812 0.71875 -8.09375 0.71875 -8.34375 C 0.71875 -8.59375 0.800781 -8.800781 0.96875 -8.96875 C 1.132812 -9.132812 1.335938 -9.21875 1.578125 -9.21875 C 1.828125 -9.21875 2.035156 -9.132812 2.203125 -8.96875 C 2.367188 -8.800781 2.453125 -8.59375 2.453125 -8.34375 Z M 0.890625 0 L 0.890625 -6.59375 L 2.265625 -6.59375 L 2.265625 0 Z M 0.890625 0 "/></g></g></g><g fill="#ffffff" fill-opacity="1"><g transform="translate(168.438621, 189.830002)"><g><path d="M 2.265625 -6.59375 L 2.265625 -5.546875 C 2.703125 -6.316406 3.40625 -6.703125 4.375 -6.703125 C 5.113281 -6.703125 5.722656 -6.453125 6.203125 -5.953125 C 6.691406 -5.460938 6.9375 -4.773438 6.9375 -3.890625 L 6.9375 0 L 5.578125 0 L 5.578125 -3.6875 C 5.578125 -4.28125 5.425781 -4.734375 5.125 -5.046875 C 4.832031 -5.359375 4.429688 -5.515625 3.921875 -5.515625 C 3.410156 -5.515625 3.003906 -5.359375 2.703125 -5.046875 C 2.410156 -4.734375 2.265625 -4.28125 2.265625 -3.6875 L 2.265625 0 L 0.890625 0 L 0.890625 -6.59375 Z M 2.265625 -6.59375 "/></g></g></g><g fill="#ffffff" fill-opacity="1"><g transform="translate(176.205001, 189.830002)"><g/></g></g><g fill="#ffffff" fill-opacity="1"><g transform="translate(179.795003, 189.830002)"><g><path d="M 4.09375 -5.484375 L 2.484375 -5.484375 L 2.484375 -1.828125 C 2.484375 -1.578125 2.539062 -1.398438 2.65625 -1.296875 C 2.78125 -1.191406 2.976562 -1.140625 3.25 -1.140625 L 4.09375 -1.140625 L 4.09375 0 L 3.015625 0 C 1.742188 0 1.109375 -0.609375 1.109375 -1.828125 L 1.109375 -5.484375 L 0.328125 -5.484375 L 0.328125 -6.59375 L 1.109375 -6.59375 L 1.109375 -8.234375 L 2.484375 -8.234375 L 2.484375 -6.59375 L 4.09375 -6.59375 Z M 4.09375 -5.484375 "/></g></g></g><g fill="#ffffff" fill-opacity="1"><g transform="translate(184.246611, 189.830002)"><g><path d="M 5.171875 -1.640625 C 5.578125 -2.035156 5.78125 -2.585938 5.78125 -3.296875 C 5.78125 -4.015625 5.585938 -4.566406 5.203125 -4.953125 C 4.816406 -5.347656 4.347656 -5.546875 3.796875 -5.546875 C 3.242188 -5.546875 2.78125 -5.347656 2.40625 -4.953125 C 2.03125 -4.566406 1.84375 -4.015625 1.84375 -3.296875 C 1.84375 -2.578125 2.023438 -2.019531 2.390625 -1.625 C 2.753906 -1.238281 3.207031 -1.046875 3.75 -1.046875 C 4.300781 -1.046875 4.773438 -1.242188 5.171875 -1.640625 Z M 3.765625 0.109375 C 2.804688 0.109375 2.015625 -0.203125 1.390625 -0.828125 C 0.765625 -1.453125 0.453125 -2.273438 0.453125 -3.296875 C 0.453125 -4.316406 0.769531 -5.140625 1.40625 -5.765625 C 2.050781 -6.390625 2.851562 -6.703125 3.8125 -6.703125 C 4.769531 -6.703125 5.570312 -6.390625 6.21875 -5.765625 C 6.863281 -5.140625 7.1875 -4.316406 7.1875 -3.296875 C 7.1875 -2.285156 6.851562 -1.460938 6.1875 -0.828125 C 5.53125 -0.203125 4.722656 0.109375 3.765625 0.109375 Z M 3.765625 0.109375 "/></g></g></g><g fill="#ffffff" fill-opacity="1"><g transform="translate(191.881361, 189.830002)"><g/></g></g><g fill="#ffffff" fill-opacity="1"><g transform="translate(195.471363, 189.830002)"><g><path d="M 3.671875 0.109375 C 2.710938 0.109375 1.929688 -0.203125 1.328125 -0.828125 C 0.734375 -1.453125 0.4375 -2.273438 0.4375 -3.296875 C 0.4375 -4.316406 0.738281 -5.140625 1.34375 -5.765625 C 1.945312 -6.390625 2.722656 -6.703125 3.671875 -6.703125 C 4.472656 -6.703125 5.132812 -6.507812 5.65625 -6.125 C 6.175781 -5.75 6.53125 -5.210938 6.71875 -4.515625 L 5.25 -4.515625 C 5 -5.203125 4.472656 -5.546875 3.671875 -5.546875 C 3.117188 -5.546875 2.675781 -5.347656 2.34375 -4.953125 C 2.007812 -4.566406 1.84375 -4.015625 1.84375 -3.296875 C 1.84375 -2.585938 2.007812 -2.035156 2.34375 -1.640625 C 2.675781 -1.242188 3.117188 -1.046875 3.671875 -1.046875 C 4.460938 -1.046875 4.988281 -1.390625 5.25 -2.078125 L 6.71875 -2.078125 C 6.519531 -1.410156 6.15625 -0.878906 5.625 -0.484375 C 5.101562 -0.0859375 4.453125 0.109375 3.671875 0.109375 Z M 3.671875 0.109375 "/></g></g></g><g fill="#ffffff" fill-opacity="1"><g transform="translate(202.651379, 189.830002)"><g><path d="M 5.171875 -1.640625 C 5.578125 -2.035156 5.78125 -2.585938 5.78125 -3.296875 C 5.78125 -4.015625 5.585938 -4.566406 5.203125 -4.953125 C 4.816406 -5.347656 4.347656 -5.546875 3.796875 -5.546875 C 3.242188 -5.546875 2.78125 -5.347656 2.40625 -4.953125 C 2.03125 -4.566406 1.84375 -4.015625 1.84375 -3.296875 C 1.84375 -2.578125 2.023438 -2.019531 2.390625 -1.625 C 2.753906 -1.238281 3.207031 -1.046875 3.75 -1.046875 C 4.300781 -1.046875 4.773438 -1.242188 5.171875 -1.640625 Z M 3.765625 0.109375 C 2.804688 0.109375 2.015625 -0.203125 1.390625 -0.828125 C 0.765625 -1.453125 0.453125 -2.273438 0.453125 -3.296875 C 0.453125 -4.316406 0.769531 -5.140625 1.40625 -5.765625 C 2.050781 -6.390625 2.851562 -6.703125 3.8125 -6.703125 C 4.769531 -6.703125 5.570312 -6.390625 6.21875 -5.765625 C 6.863281 -5.140625 7.1875 -4.316406 7.1875 -3.296875 C 7.1875 -2.285156 6.851562 -1.460938 6.1875 -0.828125 C 5.53125 -0.203125 4.722656 0.109375 3.765625 0.109375 Z M 3.765625 0.109375 "/></g></g></g><g fill="#ffffff" fill-opacity="1"><g transform="translate(210.286129, 189.830002)"><g><path d="M 2.265625 -6.59375 L 2.265625 -5.546875 C 2.703125 -6.316406 3.40625 -6.703125 4.375 -6.703125 C 5.113281 -6.703125 5.722656 -6.453125 6.203125 -5.953125 C 6.691406 -5.460938 6.9375 -4.773438 6.9375 -3.890625 L 6.9375 0 L 5.578125 0 L 5.578125 -3.6875 C 5.578125 -4.28125 5.425781 -4.734375 5.125 -5.046875 C 4.832031 -5.359375 4.429688 -5.515625 3.921875 -5.515625 C 3.410156 -5.515625 3.003906 -5.359375 2.703125 -5.046875 C 2.410156 -4.734375 2.265625 -4.28125 2.265625 -3.6875 L 2.265625 0 L 0.890625 0 L 0.890625 -6.59375 Z M 2.265625 -6.59375 "/></g></g></g><g fill="#ffffff" fill-opacity="1"><g transform="translate(218.052509, 189.830002)"><g><path d="M 4.09375 -5.484375 L 2.484375 -5.484375 L 2.484375 -1.828125 C 2.484375 -1.578125 2.539062 -1.398438 2.65625 -1.296875 C 2.78125 -1.191406 2.976562 -1.140625 3.25 -1.140625 L 4.09375 -1.140625 L 4.09375 0 L 3.015625 0 C 1.742188 0 1.109375 -0.609375 1.109375 -1.828125 L 1.109375 -5.484375 L 0.328125 -5.484375 L 0.328125 -6.59375 L 1.109375 -6.59375 L 1.109375 -8.234375 L 2.484375 -8.234375 L 2.484375 -6.59375 L 4.09375 -6.59375 Z M 4.09375 -5.484375 "/></g></g></g><g fill="#ffffff" fill-opacity="1"><g transform="translate(222.504117, 189.830002)"><g><path d="M 2.453125 -8.34375 C 2.453125 -8.09375 2.367188 -7.882812 2.203125 -7.71875 C 2.035156 -7.550781 1.828125 -7.46875 1.578125 -7.46875 C 1.335938 -7.46875 1.132812 -7.550781 0.96875 -7.71875 C 0.800781 -7.882812 0.71875 -8.09375 0.71875 -8.34375 C 0.71875 -8.59375 0.800781 -8.800781 0.96875 -8.96875 C 1.132812 -9.132812 1.335938 -9.21875 1.578125 -9.21875 C 1.828125 -9.21875 2.035156 -9.132812 2.203125 -8.96875 C 2.367188 -8.800781 2.453125 -8.59375 2.453125 -8.34375 Z M 0.890625 0 L 0.890625 -6.59375 L 2.265625 -6.59375 L 2.265625 0 Z M 0.890625 0 "/></g></g></g><g fill="#ffffff" fill-opacity="1"><g transform="translate(225.663328, 189.830002)"><g><path d="M 2.265625 -6.59375 L 2.265625 -5.546875 C 2.703125 -6.316406 3.40625 -6.703125 4.375 -6.703125 C 5.113281 -6.703125 5.722656 -6.453125 6.203125 -5.953125 C 6.691406 -5.460938 6.9375 -4.773438 6.9375 -3.890625 L 6.9375 0 L 5.578125 0 L 5.578125 -3.6875 C 5.578125 -4.28125 5.425781 -4.734375 5.125 -5.046875 C 4.832031 -5.359375 4.429688 -5.515625 3.921875 -5.515625 C 3.410156 -5.515625 3.003906 -5.359375 2.703125 -5.046875 C 2.410156 -4.734375 2.265625 -4.28125 2.265625 -3.6875 L 2.265625 0 L 0.890625 0 L 0.890625 -6.59375 Z M 2.265625 -6.59375 "/></g></g></g><g fill="#ffffff" fill-opacity="1"><g transform="translate(233.429708, 189.830002)"><g><path d="M 5.5 -6.59375 L 6.875 -6.59375 L 6.875 0 L 5.5 0 L 5.5 -1.046875 C 5.070312 -0.285156 4.375 0.09375 3.40625 0.09375 C 2.65625 0.09375 2.039062 -0.148438 1.5625 -0.640625 C 1.082031 -1.128906 0.84375 -1.816406 0.84375 -2.703125 L 0.84375 -6.59375 L 2.1875 -6.59375 L 2.1875 -2.90625 C 2.1875 -2.3125 2.332031 -1.859375 2.625 -1.546875 C 2.925781 -1.234375 3.332031 -1.078125 3.84375 -1.078125 C 4.351562 -1.078125 4.753906 -1.234375 5.046875 -1.546875 C 5.347656 -1.859375 5.5 -2.3125 5.5 -2.90625 Z M 5.5 -6.59375 "/></g></g></g><g fill="#ffffff" fill-opacity="1"><g transform="translate(241.196087, 189.830002)"><g><path d="M 3.671875 0.109375 C 2.710938 0.109375 1.929688 -0.203125 1.328125 -0.828125 C 0.734375 -1.453125 0.4375 -2.273438 0.4375 -3.296875 C 0.4375 -4.328125 0.738281 -5.148438 1.34375 -5.765625 C 1.957031 -6.390625 2.742188 -6.703125 3.703125 -6.703125 C 4.660156 -6.703125 5.4375 -6.40625 6.03125 -5.8125 C 6.632812 -5.21875 6.9375 -4.441406 6.9375 -3.484375 C 6.9375 -3.253906 6.921875 -3.039062 6.890625 -2.84375 L 1.84375 -2.84375 C 1.875 -2.289062 2.054688 -1.851562 2.390625 -1.53125 C 2.734375 -1.207031 3.160156 -1.046875 3.671875 -1.046875 C 4.410156 -1.046875 4.9375 -1.351562 5.25 -1.96875 L 6.71875 -1.96875 C 6.519531 -1.351562 6.15625 -0.851562 5.625 -0.46875 C 5.09375 -0.0820312 4.441406 0.109375 3.671875 0.109375 Z M 5.515625 -3.765625 C 5.503906 -4.304688 5.320312 -4.738281 4.96875 -5.0625 C 4.625 -5.382812 4.195312 -5.546875 3.6875 -5.546875 C 3.1875 -5.546875 2.765625 -5.382812 2.421875 -5.0625 C 2.085938 -4.738281 1.898438 -4.304688 1.859375 -3.765625 Z M 5.515625 -3.765625 "/></g></g></g></svg>